<svg width="82" height="32" viewBox="0 -2 82 32" fill="none" xmlns="http://www.w3.org/2000/svg">
<g clip-path="url(#clip0_21_556)">
<g clip-path="url(#clip1_21_556)">
<rect x="5.00002" width="3.25" height="28" fill="white"/>
<rect x="5.48958" y="1" width="3" height="14" transform="rotate(-45 5.48958 1)" fill="white"/>
<rect x="15.3891" y="6.78" width="3" height="14" transform="rotate(45 15.3891 6.78)" fill="white"/>
<rect x="5.00002" y="12.1213" width="3" height="14" transform="rotate(-45 5.00002 12.1213)" fill="white"/>
<rect x="14.8995" y="17.9013" width="3" height="14" transform="rotate(45 14.8995 17.9013)" fill="white"/>
<rect width="3" height="28" fill="white"/>
</g>
</g>
<rect x="20" y="18" width="3" height="10" fill="white"/>
<rect x="67" y="18" width="3" height="10" fill="white"/>
<rect x="72" y="12" width="3" height="16" fill="white"/>
<rect x="25" y="12" width="3" height="16" fill="white"/>
<rect x="38" y="12" width="3" height="16" fill="white"/>
<rect x="47" y="12" width="3" height="16" fill="white"/>
<rect x="52" y="12" width="3" height="16" fill="white"/>
<rect x="57" y="12" width="3" height="16" fill="white"/>
<rect x="31.2678" y="12.1109" width="3" height="8" transform="rotate(45 31.2678 12.1109)" fill="white"/>
<rect x="63" y="13" width="3" height="8" transform="rotate(45 63 13)" fill="white"/>
<rect x="38.2678" y="12" width="3" height="8" transform="rotate(45 38.2678 12)" fill="white"/>
<rect x="38.6109" y="14.1213" width="3" height="8" transform="rotate(-45 38.6109 14.1213)" fill="white"/>
<rect x="25.6109" y="22.2322" width="3" height="8" transform="rotate(-45 25.6109 22.2322)" fill="white"/>
<rect x="57.6109" y="22.2322" width="3" height="8" transform="rotate(-45 57.6109 22.2322)" fill="white"/>
<rect x="72" y="12.9717" width="3" height="16" transform="rotate(-18.8998 72 12.9717)" fill="white"/>
<rect x="20" y="12" width="3" height="4" fill="white"/>
<rect x="67" y="12" width="3" height="4" fill="white"/>
<rect x="47" y="12" width="8" height="3" fill="white"/>
<rect x="57" y="12" width="8" height="3" fill="white"/>
<rect x="47" y="25" width="8" height="3" fill="white"/>
<defs>
<clipPath id="clip0_21_556">
<rect width="18" height="28" fill="white"/>
</clipPath>
<clipPath id="clip1_21_556">
<rect width="18" height="28" fill="white"/>
</clipPath>
</defs>
</svg>
